<?xml version="1.0" encoding="UTF-8" standalone="no"?>
<!-- Created with Inkscape (http://www.inkscape.org/) -->

<svg
   version="1.1"
   id="svg25"
   xml:space="preserve"
   width="1085.3333"
   height="285.67999"
   viewBox="0 0 1085.3333 285.67999"
   sodipodi:docname="LenderX 1.ai"
   inkscape:version="1.1 (c4e8f9e, 2021-05-24)"
   xmlns:inkscape="http://www.inkscape.org/namespaces/inkscape"
   xmlns:sodipodi="http://sodipodi.sourceforge.net/DTD/sodipodi-0.dtd"
   xmlns="http://www.w3.org/2000/svg"
   xmlns:svg="http://www.w3.org/2000/svg"><defs
     id="defs29"><clipPath
       clipPathUnits="userSpaceOnUse"
       id="clipPath39"><path
         d="M 0,214.26 H 814 V 0 H 0 Z"
         id="path37" /></clipPath></defs><sodipodi:namedview
     id="namedview27"
     pagecolor="#ffffff"
     bordercolor="#666666"
     borderopacity="1.0"
     inkscape:pageshadow="2"
     inkscape:pageopacity="0.0"
     inkscape:pagecheckerboard="0"
     showgrid="false"
     inkscape:zoom="1.0531328"
     inkscape:cx="258.7518"
     inkscape:cy="142.90696"
     inkscape:window-width="1312"
     inkscape:window-height="1003"
     inkscape:window-x="3695"
     inkscape:window-y="122"
     inkscape:window-maximized="0"
     inkscape:current-layer="g31" /><g
     id="g31"
     inkscape:groupmode="layer"
     inkscape:label="LenderX 1"
     transform="matrix(1.3333333,0,0,-1.3333333,0,285.68)"><g
       id="g33"><g
         id="g35"
         clip-path="url(#clipPath39)"><g
           id="g41"
           transform="translate(46,158.0068)"><path
             d="m 0,0 h 20.329 v -98.148 h 61.322 v -18.497 H 0 Z m 501.324,-28.662 h 20.328 v -19.829 c 2.778,6.664 6.722,11.998 11.831,15.997 5.112,3.999 11.555,5.831 19.331,5.499 v -21.33 h -1.167 c -4.444,0 -8.499,-0.72 -12.166,-2.165 -3.664,-1.445 -6.831,-3.612 -9.498,-6.499 -2.664,-2.889 -4.718,-6.527 -6.163,-10.915 -1.445,-4.387 -2.168,-9.471 -2.168,-15.247 v -33.494 h -20.328 z m -36.39,-37.825 c -0.333,3.221 -1.055,6.249 -2.167,9.081 -1.11,2.832 -2.61,5.276 -4.499,7.331 -1.888,2.056 -4.137,3.694 -6.748,4.916 -2.611,1.222 -5.583,1.832 -8.915,1.832 -6.22,0 -11.36,-2.137 -15.414,-6.413 -4.054,-4.277 -6.526,-9.861 -7.416,-16.747 z m -19.997,-52.158 c -6.331,0 -12.247,1.111 -17.746,3.333 -5.499,2.222 -10.275,5.333 -14.33,9.333 -4.056,3.999 -7.248,8.803 -9.583,14.413 -2.332,5.61 -3.499,11.804 -3.499,18.58 v 0.333 c 0,6.332 1.057,12.275 3.167,17.829 2.11,5.556 5.081,10.415 8.915,14.582 3.832,4.164 8.359,7.443 13.58,9.83 5.222,2.39 10.998,3.584 17.33,3.584 6.999,0 13.137,-1.279 18.414,-3.834 5.276,-2.554 9.665,-5.998 13.165,-10.33 3.499,-4.334 6.135,-9.361 7.915,-15.082 1.777,-5.719 2.665,-11.747 2.665,-18.079 0,-0.887 -0.028,-1.805 -0.082,-2.749 -0.056,-0.945 -0.141,-1.917 -0.25,-2.917 h -64.656 c 1.113,-7.219 3.972,-12.747 8.581,-16.579 4.612,-3.832 10.194,-5.749 16.748,-5.749 4.999,0 9.333,0.889 12.997,2.667 3.667,1.777 7.278,4.386 10.833,7.831 l 11.83,-10.498 c -4.222,-4.999 -9.248,-8.999 -15.08,-11.998 -5.833,-3 -12.802,-4.5 -20.914,-4.5 m -106.958,17.665 c 3.332,0 6.526,0.665 9.637,2 3.11,1.332 5.804,3.249 8.136,5.749 2.335,2.499 4.167,5.47 5.555,8.913 1.389,3.444 2.084,7.278 2.084,11.498 v 0.335 c 0,4.22 -0.695,8.08 -2.084,11.58 -1.388,3.499 -3.22,6.47 -5.555,8.915 -2.332,2.445 -5.026,4.332 -8.136,5.664 -3.111,1.335 -6.305,2 -9.637,2 -3.444,0 -6.667,-0.638 -9.721,-1.915 -3.027,-1.278 -5.721,-3.139 -8.053,-5.584 -2.333,-2.442 -4.14,-5.414 -5.472,-8.913 -1.332,-3.499 -2,-7.416 -2,-11.747 v -0.335 c 0,-4.22 0.668,-8.081 2,-11.581 1.332,-3.499 3.139,-6.471 5.472,-8.915 2.332,-2.443 5.026,-4.332 8.053,-5.664 3.054,-1.335 6.277,-2 9.721,-2 m -4.75,-17.497 c -5.221,0 -10.275,1 -15.164,2.999 -4.887,2 -9.22,4.943 -12.997,8.832 -3.777,3.888 -6.832,8.666 -9.164,14.33 -2.334,5.666 -3.499,12.165 -3.499,19.496 v 0.335 c 0,7.331 1.137,13.829 3.414,19.496 2.278,5.663 5.277,10.442 9.056,14.329 3.776,3.889 8.108,6.833 13.052,8.833 4.917,1.999 9.998,2.999 15.22,2.999 7.193,0 13.163,-1.556 17.941,-4.666 4.777,-3.111 8.748,-6.721 11.969,-10.833 V 4.999 h 20.33 v -121.644 h -20.33 l 0.167,14.665 c -3.222,-4.556 -7.249,-8.443 -12.081,-11.666 -4.833,-3.221 -10.803,-4.831 -17.914,-4.831 m -135.703,89.815 h 20.328 v -13.802 c 1.445,2.137 3.028,4.11 4.75,5.971 1.694,1.832 3.694,3.499 5.971,4.944 2.277,1.472 4.749,2.61 7.471,3.471 2.722,0.833 5.804,1.25 9.221,1.25 9.97,0 17.662,-3.056 23.105,-9.165 5.417,-6.111 8.138,-14.332 8.138,-24.662 v -55.99 h -20.33 v 49.88 c 0,6.86 -1.61,12.163 -4.86,15.858 -3.249,3.721 -7.858,5.581 -13.802,5.581 -5.833,0 -10.582,-1.915 -14.22,-5.748 -3.639,-3.805 -5.444,-9.164 -5.444,-16.026 v -49.545 h -20.328 z m -36.39,-37.825 c -0.333,3.221 -1.055,6.249 -2.167,9.081 -1.111,2.832 -2.61,5.276 -4.499,7.331 -1.888,2.056 -4.137,3.694 -6.749,4.916 -2.61,1.222 -5.581,1.832 -8.914,1.832 -6.221,0 -11.36,-2.137 -15.414,-6.413 -4.055,-4.277 -6.526,-9.861 -7.416,-16.747 z m -19.997,-52.158 c -6.331,0 -12.247,1.111 -17.746,3.333 -5.499,2.222 -10.276,5.333 -14.33,9.333 -4.056,3.999 -7.249,8.803 -9.583,14.413 -2.332,5.61 -3.499,11.804 -3.499,18.58 v 0.333 c 0,6.332 1.057,12.275 3.166,17.829 2.111,5.556 5.082,10.415 8.916,14.582 3.832,4.164 8.359,7.443 13.58,9.83 5.222,2.39 10.998,3.584 17.33,3.584 6.998,0 13.137,-1.279 18.413,-3.834 5.277,-2.554 9.666,-5.998 13.165,-10.33 3.499,-4.334 6.136,-9.361 7.916,-15.082 1.777,-5.719 2.665,-11.747 2.665,-18.079 0,-0.887 -0.028,-1.805 -0.083,-2.749 -0.055,-0.945 -0.14,-1.917 -0.25,-2.917 h -64.654 c 1.111,-7.219 3.971,-12.747 8.58,-16.579 4.612,-3.832 10.193,-5.749 16.747,-5.749 4.999,0 9.333,0.889 12.998,2.667 3.666,1.777 7.278,4.386 10.832,7.831 l 11.83,-10.498 c -4.221,-4.999 -9.248,-8.999 -15.079,-11.998 -5.834,-3 -12.803,-4.5 -20.914,-4.5"
             style="fill:#292f3b;fill-opacity:1;fill-rule:evenodd;stroke:none"
             id="path43" /></g><g
           id="g45"
           transform="translate(665.4639,83.2793)"><path
             d="M 0,0 -19.346,-27.085 -29.94,-41.917 h -24.216 l 18.775,26.286 22.685,31.76 C -39.268,50.264 -68.13,86.576 -120.871,95.349 -11.919,102.598 6.442,-27.774 92.474,-49.432 57.15,-53.741 24.255,-30.031 0,0"
             style="fill:#292f3b;fill-opacity:1;fill-rule:evenodd;stroke:none"
             id="path47" /></g><g
           id="g49"
           transform="translate(701.4648,133.6768)"><path
             d="m 0,0 -13.336,-18.667 c 19.355,-24.946 48.176,-62.967 77.871,-74.692 -41.912,7.74 -69.345,48.267 -90.746,74.284 -15.32,18.626 -41.356,49.238 -63.603,59.514 23.884,-5.102 43.601,-21.464 63.44,-43.458 l 10.338,14.474 9.197,12.875 h 24.218 z"
             style="fill:#016fe9;fill-opacity:1;fill-rule:evenodd;stroke:none"
             id="path51" /></g></g></g></g></svg>
